<svg id="Capa_1" enable-background="new 0 0 512 512" height="512" viewBox="0 0 512 512" width="512" xmlns="http://www.w3.org/2000/svg"><g><path d="m113.784 512h284.431c2.845 0 5.151-2.306 5.151-5.151v-41.207c0-2.845-2.306-5.151-5.151-5.151h-284.431c-2.845 0-5.151 2.306-5.151 5.151v41.207c.001 2.845 2.307 5.151 5.151 5.151z" fill="#6c7fd8"/><path d="m398.216 460.491h-25.755c2.845 0 5.151 2.306 5.151 5.151v41.207c0 2.845-2.306 5.151-5.151 5.151h25.755c2.845 0 5.151-2.306 5.151-5.151v-41.207c-.001-2.845-2.307-5.151-5.151-5.151z" fill="#4f66d0"/><path d="m364.594 248.721-68.662 69.23c-1.295 1.306-3.523.389-3.523-1.451v-311.349c0-2.845-2.306-5.151-5.151-5.151h-41.207c-2.845 0-5.151 2.306-5.151 5.151v311.5c0 1.832-2.211 2.753-3.511 1.463l-69.142-68.575c-1.304-1.293-3.353-.363-3.344 1.473v66.01c.007 1.364.722 2.67 1.691 3.631l97.672 96.87c1.616 1.603 4.225 1.592 5.828-.024l96.866-97.667c.963-.971 1.333-2.286 1.326-3.653v-66.018c-.01-1.834-2.4-2.743-3.692-1.44z" fill="#6c7fd8"/><g fill="#4f66d0"><path d="m266.654 5.151v337.046c0 1.84 2.228 2.757 3.523 1.451l25.035-25.243c-1.265.497-2.804-.374-2.804-1.905v-311.349c0-2.845-2.306-5.151-5.151-5.151h-25.755c2.846 0 5.152 2.306 5.152 5.151z"/><path d="m368.285 250.161c-.009-1.835-2.399-2.743-3.691-1.44l-25.036 25.243c1.261-.496 2.964.368 2.972 1.895v40.32c.007 1.368-.363 2.682-1.326 3.653l-86.997 87.716 10.058 9.975c1.616 1.603 4.225 1.592 5.828-.024l96.866-97.667c.963-.971 1.333-2.286 1.326-3.653z"/><path d="m236.877 343.357c1.3 1.29 3.511.369 3.511-1.463v-23.906c-.728.832-2.083 1.035-3 .126l-69.142-68.575c-1.304-1.293-3.353-.363-3.344 1.473v20.692z"/></g></g></svg>