<svg id="Layer_1" enable-background="new 0 0 510 510" height="512" viewBox="0 0 510 510" width="512" xmlns="http://www.w3.org/2000/svg"><g id="XMLID_163_"><path id="XMLID_1754_" d="m67.5 30h-60v480h240l10-28.333-10-31.667z" fill="#2ad5f5"/><path id="XMLID_1753_" d="m278.557 450-16.057-7.75-15 7.75v60h135z" fill="#3fa8ff"/><path id="XMLID_1752_" d="m67.5 0h180l15 255-15 195c-6.809 0-170.701 0-180 0 0-15.83 0-429.401 0-450z" fill="#f4f1f1"/><path id="XMLID_1751_" d="m278.557 450h-31.057v-300l-15-15 15-15v-30l-15-15 15-15v-60h81.167l12 84.879 86.833 13.746v180.107z" fill="#eceae7"/><path id="XMLID_1750_" d="m328.667 0 98.833 98.625h-98.833z" fill="#e7dfdd"/><path id="XMLID_1749_" d="m127.5 60h120v30h-120z" fill="#2ad5f5"/><path id="XMLID_1740_" d="m127.5 120h120v30h-120z" fill="#006181"/><path id="XMLID_1739_" d="m127.5 180v30h120l15-15-15-15z" fill="#2ad5f5"/><path id="XMLID_1738_" d="m247.5 180h120v30h-120z" fill="#3fa8ff"/><path id="XMLID_1737_" d="m127.5 270h120l15-15-15-15h-120z" fill="#006181"/><path id="XMLID_1736_" d="m247.5 240h120v30h-120z" fill="#004761"/><path id="XMLID_1735_" d="m127.5 330h120l15-15-15-15h-120z" fill="#2ad5f5"/><path id="XMLID_1734_" d="m303.126 300h-55.626v30h31.055z" fill="#3fa8ff"/><path id="XMLID_1733_" d="m127.5 390h120l15-15-15-15h-120z" fill="#006181"/><path id="XMLID_1732_" d="m270.167 375-3.885-15h-18.782v30h15z" fill="#004761"/><circle id="XMLID_1731_" cx="382.5" cy="390" fill="#00d165" r="120"/><path id="XMLID_1730_" d="m349.279 449.71-39.259-58.89 24.96-16.64 20.741 31.11 77.176-64.313 19.206 23.046z" fill="#eceae7"/></g></svg>