<svg enable-background="new 0 0 512 512" height="512" viewBox="0 0 512 512" width="512" xmlns="http://www.w3.org/2000/svg"><g id="BULINE"><path id="XMLID_175_" d="m512 256c0 70.692-28.654 134.692-74.981 181.019s-110.327 74.981-181.019 74.981-134.692-28.654-181.019-74.981-74.981-110.327-74.981-181.019 28.654-134.692 74.981-181.019 110.327-74.981 181.019-74.981 134.692 28.654 181.019 74.981 74.981 110.327 74.981 181.019z" fill="#4a4b9b"/></g><g id="Icons"><g id="XMLID_281_"><g id="XMLID_298_"><path id="XMLID_373_" d="m491.45 97.652v129.559 129.559c0 1.528-.491 2.966-1.344 4.141s-2.069 2.087-3.518 2.561l-57.057 18.54-57.057 18.54c-.942.307-1.904.538-2.876.694s-1.953.237-2.934.242c-.981.006-1.963-.064-2.936-.21s-1.938-.369-2.885-.67l-49.402-15.473-49.402-15.473c-1.271-.401-2.576-.663-3.891-.789-1.315-.125-2.639-.114-3.949.031-.608.067-1.213.162-1.814.287s-1.197.282-1.788.471l-49.452 15.49-49.452 15.49c-.931.295-1.879.516-2.835.662s-1.921.219-2.885.219c-.97 0-1.938-.073-2.895-.219s-1.906-.367-2.837-.662l-59.181-18.602-59.182-18.601c-1.466-.463-2.699-1.374-3.564-2.555-.866-1.181-1.365-2.63-1.365-4.169v-129.582-129.582c0-2.375 1.154-4.41 2.876-5.673s4.01-1.754 6.28-1.04l57.052 17.932 57.052 17.932c.937.296 1.893.516 2.858.662s1.938.219 2.908.219 1.94-.075 2.902-.226 1.915-.376 2.852-.677l49.402-15.657 49.402-15.657c.602-.19 1.21-.351 1.822-.482s1.228-.231 1.847-.298c1.327-.145 2.662-.153 3.985-.024 1.323.13 2.633.397 3.91.804l49.357 15.646 49.357 15.646c.953.301 1.924.527 2.902.676.979.149 1.965.222 2.952.216s1.974-.086 2.951-.243c.977-.156 1.945-.388 2.892-.694l54.86-17.826 54.86-17.826c2.275-.742 4.581-.265 6.317.995 1.737 1.26 2.905 3.304 2.905 5.696z" fill="#fff"/><path id="XMLID_372_" d="m366.664 127.549v136.97 136.97c-.981.006-1.963-.064-2.936-.21s-1.938-.369-2.885-.67l-49.402-15.473-49.402-15.473c-1.271-.401-2.576-.663-3.891-.789-1.315-.125-2.639-.114-3.949.031v-137.161-137.159c1.327-.145 2.662-.153 3.985-.024 1.323.13 2.633.397 3.91.804l49.357 15.646 49.357 15.646c.953.301 1.924.527 2.902.676.98.149 1.967.222 2.954.216z" fill="#ccc"/><path id="XMLID_371_" d="m145.974 127.583v136.97 136.97c-.97 0-1.938-.073-2.895-.219s-1.906-.367-2.837-.662l-59.182-18.602-59.182-18.601c-1.466-.463-2.699-1.374-3.564-2.555-.866-1.181-1.365-2.63-1.365-4.169v-129.582-129.582c0-2.375 1.154-4.41 2.876-5.673s4.01-1.754 6.28-1.04l57.052 17.932 57.052 17.932c.937.296 1.893.516 2.858.662s1.937.219 2.907.219z" fill="#ccc"/><path id="XMLID_370_" d="m145.966 384.828-55.175-17.609-55.175-17.609v-118.96-118.959l55.175 17.609 55.175 17.609v118.96z" fill="#00b764"/><path id="XMLID_369_" d="m366.667 384.828 55.175-17.609 55.175-17.609v-118.96-118.959l-55.175 17.609-55.175 17.609v118.96z" fill="#5bdda2"/><path id="XMLID_368_" d="m366.667 384.828-55.175-17.609-55.176-17.609v-118.96-118.959l55.176 17.609 55.175 17.609v118.96z" fill="#4ace99"/><path id="XMLID_367_" d="m145.966 384.828 55.175-17.609 55.175-17.609v-118.96-118.959l-55.175 17.609-55.175 17.609v118.96z" fill="#38c689"/><path id="XMLID_366_" d="m35.616 111.69v118.96 118.96l55.177 17.609 55.177 17.609v-81.083-81.084c-35.026-28.357-62.614-56.1-81.446-76.753s-28.908-34.218-28.908-34.218z" fill="#04a558"/><path id="XMLID_322_" d="m366.665 337.113v23.858 23.858l55.177-17.609 55.177-17.609c-19.334.37-38.224-.619-56.63-2.768-18.407-2.15-36.328-5.459-53.724-9.73z" fill="#55ce94"/><path id="XMLID_321_" d="m256.312 295.27v27.17 27.17l55.177 17.609 55.177 17.609v-23.858-23.858c-19.836-4.869-38.99-10.988-57.402-18.061-18.413-7.071-36.083-15.098-52.952-23.781z" fill="#48c18d"/><path id="XMLID_320_" d="m145.969 222.662v81.084 81.083l55.171-17.609 55.171-17.609v-27.17-27.17c-21.033-10.818-40.821-22.661-59.249-34.954s-35.497-25.036-51.093-37.655z" fill="#39b77e"/><path id="XMLID_319_" d="m122.283 248.26s-2.029-11.295 3.804-22.303c5.833-11.009 19.527-21.731 50.972-20.587 0 0 7.861-7.786 16.103-10.185s16.864.587 18.385 22.131c0 0 10.144 2.911 15.85 10.133s6.974 18.755-10.778 35.999c0 0-1.263 10.079-6.901 19.096s-15.653 16.973-33.156 12.727c0 0-18.895 2.709-35.128-1.813-16.232-4.522-29.802-16.275-19.151-45.198z" fill="#41c2e5"/><path id="XMLID_318_" d="m145.969 209.335v42.558 42.558c-9.033-1.785-17.863-5.455-22.98-12.626-5.117-7.172-6.522-17.845-.705-33.639 0 0-1.263-7.027 1.066-15.397s8.25-18.083 22.619-23.454z" fill="#40b2cc"/><path id="XMLID_317_" d="m441.809 174.6s-6.34-4.038-14.708-2.21c-8.369 1.827-18.766 9.52-26.881 32.98 0 0-2.282 8.304-9.763 12.456s-20.161 4.152-40.955-12.456c0 0-12.172-3.869-22.189.156s-17.878 15.944-9.256 47.519c0 0-7.608 12.173-8.495 23.537s4.945 21.921 31.826 18.689c0 0 10.397 14.484 25.106 22.661 14.708 8.177 33.728 10.046 50.972-15.183 0 0 11.158-5.247 20.414-14.681s16.61-23.057 9.003-39.808c0 0 12.172-11.971 17.625-27.164 5.45-15.193 4.182-33.608-22.699-46.496z" fill="#41c2e5"/><path id="XMLID_316_" d="m366.665 216.63v50.8 50.8c-7.4-4.083-13.719-9.773-18.189-14.443s-7.089-8.319-7.089-8.319c-26.881 3.236-32.713-7.321-31.826-18.687s8.495-23.541 8.495-23.541c-8.622-31.572-.761-43.491 9.256-47.517s22.189-.158 22.189-.158c3.241 2.587 6.284 4.77 9.141 6.598 2.857 1.827 5.527 3.3 8.023 4.467z" fill="#40b2cc"/><path id="XMLID_315_" d="m54.32 315.597s2.259-9.994 7.947-15.678c5.688-5.683 14.806-7.056 28.523 10.189 0 0 9.776 5.957 14.664 13.214s4.888 15.814-14.663 21.016c0 0-15.458 3.824-27.745 2.143s-21.405-8.866-8.726-30.884z" fill="#40b2cc"/><path id="XMLID_314_" d="m445.862 204.632c1.181 2.919.948 6.088-.382 8.852-1.331 2.764-3.759 5.123-6.97 6.422s-6.597 1.292-9.475.23-5.249-3.178-6.429-6.097c-1.181-2.919-.948-6.088.382-8.852 1.331-2.764 3.759-5.123 6.97-6.422s6.597-1.292 9.475-.23c2.878 1.061 5.249 3.178 6.429 6.097z" fill="#5bd3ef"/><path id="XMLID_313_" d="m203.193 217.958c1.181 2.919.948 6.088-.382 8.852-1.331 2.764-3.759 5.123-6.97 6.422s-6.597 1.292-9.475.23-5.249-3.178-6.429-6.097c-1.181-2.919-.948-6.088.382-8.852 1.331-2.764 3.759-5.123 6.97-6.422s6.597-1.292 9.475-.23c2.877 1.062 5.248 3.178 6.429 6.097z" fill="#5bd3ef"/><path id="XMLID_312_" d="m190.533 261.098c1.593 3.939 1.28 8.215-.516 11.945-1.795 3.73-5.073 6.913-9.406 8.666s-8.902 1.743-12.786.31-7.083-4.288-8.676-8.227-1.28-8.216.516-11.945 5.073-6.913 9.406-8.666 8.902-1.743 12.786-.31c3.883 1.432 7.082 4.288 8.676 8.227z" fill="#5bd3ef"/><path id="XMLID_311_" d="m419.845 260.433c1.76 4.351 1.413 9.076-.57 13.196-1.983 4.121-5.604 7.637-10.391 9.574-4.787 1.936-9.834 1.926-14.125.343s-7.824-4.737-9.585-9.089c-1.76-4.352-1.414-9.076.57-13.197 1.983-4.121 5.604-7.637 10.391-9.574 4.787-1.936 9.834-1.926 14.125-.343 4.291 1.584 7.825 4.738 9.585 9.09z" fill="#5bd3ef"/><path id="XMLID_310_" d="m211.355 154.885c.923 3.289-.457 6.888-3.434 10.048s-7.55 5.881-13.016 7.415c-5.465 1.533-10.787 1.589-14.973.438-4.186-1.15-7.237-3.506-8.159-6.795-.923-3.289.457-6.888 3.434-10.048s7.55-5.881 13.016-7.415c5.465-1.533 10.787-1.589 14.973-.438 4.186 1.15 7.236 3.506 8.159 6.795z" fill="#00b764"/><path id="XMLID_307_" d="m88.079 192.21c.923 3.289-.457 6.888-3.434 10.048s-7.55 5.881-13.016 7.415c-5.465 1.533-10.787 1.589-14.973.438-4.186-1.15-7.237-3.506-8.159-6.795s.457-6.888 3.434-10.048 7.55-5.881 13.016-7.415c5.465-1.533 10.787-1.589 14.973-.438 4.186 1.15 7.237 3.506 8.159 6.795z" fill="#048e49"/><path id="XMLID_306_" d="m246.282 190.765c.619 2.205-.306 4.618-2.302 6.737s-5.063 3.943-8.727 4.972-7.233 1.065-10.039.294c-2.807-.771-4.852-2.351-5.471-4.556s.306-4.618 2.302-6.737 5.063-3.943 8.727-4.972c3.664-1.028 7.233-1.065 10.039-.294 2.807.772 4.852 2.351 5.471 4.556z" fill="#00b764"/><path id="XMLID_305_" d="m81.559 259.502c.619 2.205-.306 4.618-2.302 6.737s-5.063 3.943-8.727 4.972c-3.664 1.028-7.233 1.065-10.039.294s-4.852-2.351-5.471-4.556.306-4.618 2.302-6.737 5.063-3.943 8.727-4.972c3.664-1.028 7.233-1.065 10.039-.294s4.852 2.351 5.471 4.556z" fill="#048e49"/><path id="XMLID_304_" d="m139.8 316.645c.619 2.205-.306 4.618-2.302 6.737s-5.063 3.943-8.727 4.972c-3.664 1.028-7.233 1.065-10.039.294s-4.852-2.351-5.471-4.556.306-4.618 2.302-6.737 5.063-3.943 8.727-4.972c3.664-1.028 7.233-1.065 10.039-.294 2.807.772 4.852 2.351 5.471 4.556z" fill="#048e49"/><g fill="#00b764"><path id="XMLID_303_" d="m311.851 160.137c.923 3.289-.457 6.888-3.434 10.048s-7.55 5.881-13.016 7.415c-5.465 1.533-10.787 1.589-14.973.438-4.186-1.15-7.237-3.506-8.159-6.795-.923-3.289.457-6.888 3.434-10.048s7.55-5.881 13.016-7.415c5.465-1.533 10.787-1.589 14.973-.438 4.186 1.15 7.236 3.506 8.159 6.795z"/><path id="XMLID_302_" d="m422.301 154.885c.923 3.289-.457 6.888-3.434 10.048s-7.55 5.881-13.016 7.415c-5.465 1.533-10.787 1.589-14.973.438-4.186-1.15-7.237-3.506-8.159-6.795-.923-3.289.457-6.888 3.434-10.048s7.55-5.881 13.016-7.415c5.465-1.533 10.787-1.589 14.973-.438 4.185 1.15 7.236 3.506 8.159 6.795z"/><path id="XMLID_301_" d="m353.029 181.589c.619 2.205-.306 4.618-2.302 6.737s-5.063 3.943-8.727 4.972c-3.664 1.028-7.233 1.065-10.039.294-2.807-.771-4.852-2.351-5.471-4.556s.306-4.618 2.302-6.737 5.063-3.943 8.727-4.972c3.664-1.028 7.233-1.065 10.039-.294 2.807.771 4.852 2.351 5.471 4.556z"/><path id="XMLID_300_" d="m466.903 316.645c.619 2.205-.306 4.618-2.302 6.737s-5.063 3.943-8.727 4.972c-3.664 1.028-7.233 1.065-10.039.294-2.807-.771-4.852-2.351-5.471-4.556s.306-4.618 2.302-6.737 5.063-3.943 8.727-4.972c3.664-1.028 7.233-1.065 10.039-.294 2.807.772 4.852 2.351 5.471 4.556z"/><path id="XMLID_299_" d="m299.979 241.744c.619 2.205-.306 4.618-2.302 6.737s-5.063 3.943-8.727 4.972c-3.664 1.028-7.233 1.065-10.039.294s-4.852-2.351-5.471-4.556.306-4.618 2.302-6.737 5.063-3.943 8.727-4.972c3.664-1.028 7.233-1.065 10.039-.294s4.852 2.351 5.471 4.556z"/></g></g><path d="m422.584 341.113h-127.604c-6.822 0-13.236-2.657-18.061-7.481-4.824-4.825-7.48-11.239-7.48-18.061v-42.201c0-4.686-1.825-9.09-5.138-12.403s-7.718-5.138-12.404-5.138h-152.163c-6.822 0-13.236-2.657-18.061-7.48-4.824-4.825-7.481-11.239-7.481-18.061v-53.456c0-2.209 1.791-4 4-4s4 1.791 4 4v53.456c0 4.686 1.825 9.091 5.138 12.404s7.718 5.138 12.403 5.138h152.164c6.823 0 13.237 2.657 18.061 7.481 4.824 4.823 7.481 11.237 7.481 18.06v42.202c0 4.685 1.825 9.09 5.138 12.404 3.313 3.313 7.718 5.138 12.404 5.138h127.604c2.209 0 4 1.791 4 4s-1.792 3.998-4.001 3.998z" fill="#fff"/><g id="XMLID_289_"><path id="XMLID_295_" d="m20.834 88.336c0 12.838 9.421 33.132 20.627 52.728s24.196 38.497 31.336 48.55c1.32 1.858 3.358 2.788 5.396 2.788s4.076-.929 5.396-2.788c7.139-10.053 20.13-28.954 31.336-48.55s20.627-39.89 20.627-52.728c0-15.839-6.42-30.179-16.8-40.559s-24.719-16.8-40.559-16.8-30.179 6.42-40.559 16.8-16.8 24.719-16.8 40.559z" fill="#dd1b1b"/><path id="XMLID_294_" d="m89.953 180.496c-1.206 1.755-2.348 3.405-3.414 4.93-1.066 1.526-2.054 2.928-2.952 4.19-1.319 1.858-3.358 2.787-5.396 2.787s-4.077-.929-5.396-2.787c-7.139-10.053-20.129-28.954-31.335-48.552s-20.626-39.89-20.626-52.728c0-12.879 4.245-24.768 11.413-34.342s17.257-16.834 28.945-20.456c-6.986 5.23-12.739 12.017-16.745 19.846s-6.267 16.7-6.267 26.099c0 12.784 9.338 32.956 20.479 52.472s24.083 38.378 31.294 48.541z" fill="#bf1b1b"/><path id="XMLID_293_" d="m33.855 88.86c0 12.243 4.963 23.328 12.986 31.351s19.108 12.986 31.351 12.986 23.328-4.963 31.351-12.986 12.986-19.108 12.986-31.351-4.963-23.328-12.986-31.351-19.107-12.986-31.351-12.986-23.328 4.963-31.351 12.986-12.986 19.108-12.986 31.351z" fill="#ac60fc"/><path id="XMLID_292_" d="m87.384 132.24c-1.483.314-2.994.552-4.527.713s-3.09.242-4.665.242c-12.243 0-23.328-4.962-31.351-12.985s-12.986-19.107-12.986-31.352c0-12.243 4.963-23.328 12.986-31.351s19.108-12.986 31.351-12.986c1.575 0 3.132.082 4.665.242s3.044.399 4.527.713c-10.037 2.116-18.824 7.627-25.101 15.277s-10.044 17.437-10.044 28.105c0 10.67 3.768 20.457 10.045 28.106s15.063 13.16 25.1 15.276z" fill="#954cf7"/><path id="XMLID_291_" d="m107.355 143.967c-1.058 1.894-2.537 3.317-4.072 4.088s-3.127.888-4.411.171c-1.284-.718-2.017-2.135-2.165-3.846s.29-3.717 1.348-5.61c1.058-1.894 2.537-3.317 4.072-4.088s3.127-.888 4.411-.171c1.284.718 2.017 2.135 2.165 3.846s-.29 3.716-1.348 5.61z" fill="#e53535"/><path id="XMLID_290_" d="m101.299 155.408c-1.236 2.212-2.963 3.874-4.756 4.775-1.793.9-3.652 1.038-5.152.199-1.5-.838-2.356-2.494-2.529-4.492-.173-1.999.339-4.341 1.575-6.553s2.963-3.874 4.756-4.775c1.793-.9 3.652-1.038 5.152-.199 1.5.838 2.356 2.494 2.529 4.492.172 1.999-.339 4.342-1.575 6.553z" fill="#ea4949"/></g><g id="XMLID_282_"><path id="XMLID_288_" d="m363.626 254.476c0 12.838 9.421 33.132 20.627 52.728 11.206 19.597 24.196 38.497 31.336 48.55 1.32 1.858 3.358 2.788 5.396 2.788s4.076-.929 5.396-2.788c7.139-10.053 20.13-28.954 31.336-48.55 11.206-19.597 20.627-39.89 20.627-52.728 0-15.839-6.42-30.179-16.8-40.559s-24.719-16.8-40.559-16.8c-15.839 0-30.179 6.42-40.559 16.8-10.38 10.381-16.8 24.72-16.8 40.559z" fill="#dd1b1b"/><path id="XMLID_287_" d="m432.745 346.637c-1.206 1.755-2.348 3.405-3.414 4.93-1.066 1.526-2.054 2.928-2.952 4.19-1.319 1.858-3.358 2.787-5.396 2.787s-4.077-.929-5.396-2.787c-7.139-10.053-20.129-28.954-31.335-48.552-11.206-19.597-20.626-39.891-20.626-52.728 0-12.879 4.245-24.768 11.413-34.342 7.167-9.574 17.257-16.834 28.945-20.456-6.986 5.23-12.739 12.017-16.745 19.846-4.007 7.829-6.267 16.7-6.267 26.099 0 12.784 9.338 32.956 20.479 52.472 11.14 19.516 24.083 38.377 31.294 48.541z" fill="#bf1b1b"/><path id="XMLID_286_" d="m376.647 255.001c0 12.243 4.963 23.328 12.986 31.351s19.108 12.986 31.351 12.986 23.328-4.963 31.351-12.986 12.986-19.108 12.986-31.351-4.963-23.328-12.986-31.351-19.108-12.986-31.351-12.986-23.328 4.963-31.351 12.986-12.986 19.107-12.986 31.351z" fill="#ac60fc"/><path id="XMLID_285_" d="m430.177 298.381c-1.483.314-2.994.552-4.527.713s-3.09.242-4.665.242c-12.243 0-23.328-4.962-31.351-12.985s-12.986-19.107-12.986-31.352c0-12.243 4.963-23.328 12.986-31.351 8.024-8.024 19.108-12.986 31.351-12.986 1.575 0 3.132.082 4.665.242s3.044.399 4.527.713c-10.037 2.116-18.824 7.627-25.101 15.277s-10.045 17.437-10.045 28.105c0 10.67 3.768 20.457 10.045 28.106s15.063 13.16 25.101 15.276z" fill="#954cf7"/><path id="XMLID_284_" d="m450.147 310.108c-1.058 1.894-2.537 3.317-4.072 4.088s-3.127.888-4.411.171c-1.284-.718-2.017-2.135-2.165-3.846s.29-3.717 1.348-5.61 2.537-3.317 4.072-4.088 3.127-.888 4.411-.171c1.284.718 2.017 2.135 2.165 3.846s-.29 3.716-1.348 5.61z" fill="#e53535"/><path id="XMLID_283_" d="m444.091 321.549c-1.236 2.212-2.963 3.874-4.756 4.775-1.793.9-3.652 1.038-5.152.199-1.5-.838-2.356-2.494-2.529-4.492s.339-4.341 1.575-6.553 2.963-3.874 4.756-4.775c1.793-.9 3.652-1.038 5.152-.199s2.356 2.494 2.529 4.492c.173 1.999-.339 4.341-1.575 6.553z" fill="#ea4949"/></g></g></g></svg>