<svg height="512pt" viewBox="0 0 512 512" width="512pt" xmlns="http://www.w3.org/2000/svg" xmlns:xlink="http://www.w3.org/1999/xlink"><linearGradient id="a" gradientUnits="userSpaceOnUse" x1="0" x2="512" y1="256" y2="256"><stop offset="0" stop-color="#00f38d"/><stop offset="1" stop-color="#009eff"/></linearGradient><path d="m512 256c0 141.386719-114.613281 256-256 256s-256-114.613281-256-256 114.613281-256 256-256 256 114.613281 256 256zm0 0" fill="url(#a)"/><g fill="#fff"><path d="m297.914062 80.613281h-139.058593c-23.261719 0-42.1875 18.921875-42.1875 42.183594v266.40625c0 23.261719 18.925781 42.183594 42.1875 42.183594h194.292969c23.257812 0 42.183593-18.921875 42.183593-42.183594v-210.675781zm8.386719 50.964844 37.945313 38.140625h-25.761719c-6.71875 0-12.183594-5.46875-12.183594-12.1875zm46.847657 269.808594h-194.292969c-6.71875 0-12.1875-5.464844-12.1875-12.183594v-266.40625c0-6.71875 5.46875-12.183594 12.1875-12.183594h117.445312v46.917969c0 23.261719 18.925781 42.1875 42.1875 42.1875h46.84375v189.484375c0 6.71875-5.46875 12.183594-12.183593 12.183594zm0 0"/><path d="m238.445312 316.144531-44.203124-41.765625-20.605469 21.808594 66.445312 62.777344 99.777344-109.871094-22.207031-20.167969zm0 0"/></g></svg>