<?xml version="1.0" encoding="iso-8859-1"?>
<!-- Generator: Adobe Illustrator 19.0.0, SVG Export Plug-In . SVG Version: 6.00 Build 0)  -->
<svg version="1.1" id="Capa_1" xmlns="http://www.w3.org/2000/svg" xmlns:xlink="http://www.w3.org/1999/xlink" x="0px" y="0px"
	 viewBox="0 0 496.224 496.224" style="enable-background:new 0 0 496.224 496.224;" xml:space="preserve">
<linearGradient id="SVGID_1_" gradientUnits="userSpaceOnUse" x1="-48.0724" y1="564.6465" x2="21.0786" y2="633.7925" gradientTransform="matrix(8 0 0 -8 398.2156 5015.0166)">
	<stop  offset="0" style="stop-color:#AA6100"/>
	<stop  offset="0.093" style="stop-color:#AC6400"/>
	<stop  offset="0.165" style="stop-color:#B26E00"/>
	<stop  offset="0.231" style="stop-color:#BB7E00"/>
	<stop  offset="0.292" style="stop-color:#C99600"/>
	<stop  offset="0.35" style="stop-color:#DBB400"/>
	<stop  offset="0.405" style="stop-color:#F0D800"/>
	<stop  offset="0.439" style="stop-color:#FFF200"/>
	<stop  offset="0.474" style="stop-color:#FFD705"/>
	<stop  offset="0.519" style="stop-color:#FFBB0A"/>
	<stop  offset="0.565" style="stop-color:#FFA80E"/>
	<stop  offset="0.611" style="stop-color:#FF9C10"/>
	<stop  offset="0.658" style="stop-color:#FF9811"/>
	<stop  offset="0.732" style="stop-color:#FF9A12"/>
	<stop  offset="0.758" style="stop-color:#FFA118"/>
	<stop  offset="0.777" style="stop-color:#FFAC21"/>
	<stop  offset="0.793" style="stop-color:#FFBD2E"/>
	<stop  offset="0.806" style="stop-color:#FFD33F"/>
	<stop  offset="0.809" style="stop-color:#FFDA44"/>
	<stop  offset="0.879" style="stop-color:#DDA928"/>
	<stop  offset="0.96" style="stop-color:#B8750B"/>
	<stop  offset="1" style="stop-color:#AA6100"/>
</linearGradient>
<path style="fill:url(#SVGID_1_);" d="M390.84,198.456c31.449-12.516,46.798-48.157,34.281-79.607
	c-9.29-23.343-31.886-38.652-57.009-38.625c-6.87,0.005-13.69,1.176-20.168,3.464c-16.498-35.959-58.211-52.768-95.032-38.296
	c-23.598-42.553-77.224-57.919-119.778-34.321s-57.92,77.224-34.321,119.778s77.224,57.92,119.778,34.321
	c1.426-0.791,2.83-1.621,4.209-2.49c9.931,11.961,23.36,20.511,38.4,24.448c-4.334,0.206-8.654,0.66-12.936,1.36
	c-17.615-8.086-36.77-12.269-56.152-12.264h-32c-75.076,0.084-135.916,60.924-136,136v176c0,4.418,3.582,8,8,8h288
	c4.418,0,8-3.582,8-8v-32h72c4.418,0,8-3.582,8-8v-32h56c4.418,0,8-3.582,8-8v-117.36
	C472.018,244.043,437.266,204.529,390.84,198.456L390.84,198.456z M343.856,198.648c-14.033-6.84-29.317-10.738-44.912-11.456
	c7.147-1.865,13.97-4.8,20.24-8.704c6.748,8.925,15.816,15.826,26.216,19.952c-0.488,0.064-1.032,0.128-1.544,0.184V198.648z
	 M413.456,141.584c-0.037,25.047-20.371,45.322-45.418,45.285c-14.269-0.021-27.697-6.756-36.246-18.181
	c14.692-14.046,22.99-33.498,22.96-53.824c-0.062-5.386-0.701-10.75-1.904-16c4.896-1.76,10.061-2.653,15.264-2.64
	c25.039,0.031,45.329,20.321,45.36,45.36H413.456z M104.112,88.224c0-39.765,32.236-72,72-72s72,32.235,72,72s-32.236,72-72,72
	C136.366,160.18,104.156,127.97,104.112,88.224z M235.488,153.024c25.838-23.447,35.235-60.027,23.896-93.024
	c30.324-11.448,64.186,3.854,75.634,34.178s-3.854,64.186-34.178,75.634C277.695,178.549,251.556,171.835,235.488,153.024z
	 M312.112,480.224h-272v-168c0.075-66.243,53.757-119.925,120-120h32c17.887-0.041,35.553,3.957,51.68,11.696
	c17.072,8.177,31.997,20.231,43.584,35.2c16.124,20.951,24.826,46.667,24.736,73.104L312.112,480.224z M392.112,440.224h-64v-128
	c0.102-29.968-9.765-59.119-28.048-82.864c-7.876-10.056-17.117-18.963-27.456-26.464h20.864c15.842-0.059,31.46,3.75,45.496,11.096
	c32.69,16.973,53.189,50.758,53.144,87.592L392.112,440.224z M456.112,400.224h-48v-98.64c0.053-33.98-15.003-66.224-41.088-88
	h11.728c42.683,0.026,77.289,34.597,77.36,77.28V400.224z"/>
<linearGradient id="SVGID_2_" gradientUnits="userSpaceOnUse" x1="-48.2712" y1="564.8393" x2="20.8768" y2="633.9923" gradientTransform="matrix(8 0 0 -8 398.2156 5015.0166)">
	<stop  offset="0" style="stop-color:#AA6100"/>
	<stop  offset="0.093" style="stop-color:#AC6400"/>
	<stop  offset="0.165" style="stop-color:#B26E00"/>
	<stop  offset="0.231" style="stop-color:#BB7E00"/>
	<stop  offset="0.292" style="stop-color:#C99600"/>
	<stop  offset="0.35" style="stop-color:#DBB400"/>
	<stop  offset="0.405" style="stop-color:#F0D800"/>
	<stop  offset="0.439" style="stop-color:#FFF200"/>
	<stop  offset="0.474" style="stop-color:#FFD705"/>
	<stop  offset="0.519" style="stop-color:#FFBB0A"/>
	<stop  offset="0.565" style="stop-color:#FFA80E"/>
	<stop  offset="0.611" style="stop-color:#FF9C10"/>
	<stop  offset="0.658" style="stop-color:#FF9811"/>
	<stop  offset="0.732" style="stop-color:#FF9A12"/>
	<stop  offset="0.758" style="stop-color:#FFA118"/>
	<stop  offset="0.777" style="stop-color:#FFAC21"/>
	<stop  offset="0.793" style="stop-color:#FFBD2E"/>
	<stop  offset="0.806" style="stop-color:#FFD33F"/>
	<stop  offset="0.809" style="stop-color:#FFDA44"/>
	<stop  offset="0.879" style="stop-color:#DDA928"/>
	<stop  offset="0.96" style="stop-color:#B8750B"/>
	<stop  offset="1" style="stop-color:#AA6100"/>
</linearGradient>
<path style="fill:url(#SVGID_2_);" d="M203.312,270.624l19.2-25.6c2.594-3.456,1.974-8.348-1.4-11.048l-40-32
	c-2.923-2.34-7.077-2.34-10,0l-40,32c-3.374,2.7-3.994,7.592-1.4,11.048l19.2,25.6l-25.6,19.2c-2.652,1.988-3.803,5.405-2.896,8.592
	l48,168c1.206,4.25,5.63,6.718,9.88,5.512c2.668-0.757,4.754-2.843,5.512-5.512l48-168c0.908-3.187-0.244-6.604-2.896-8.592
	L203.312,270.624z M176.112,435.104l-38.8-135.784l27.6-20.696c3.535-2.651,4.251-7.665,1.6-11.2c0,0,0,0,0,0l-19.344-25.792
	l28.944-23.168l28.944,23.2l-19.344,25.76c-2.651,3.535-1.935,8.549,1.6,11.2h0l27.6,20.696L176.112,435.104z"/>
<linearGradient id="SVGID_3_" gradientUnits="userSpaceOnUse" x1="-41.271" y1="557.8392" x2="27.877" y2="626.9921" gradientTransform="matrix(8 0 0 -8 398.2156 5015.0166)">
	<stop  offset="0" style="stop-color:#AA6100"/>
	<stop  offset="0.093" style="stop-color:#AC6400"/>
	<stop  offset="0.165" style="stop-color:#B26E00"/>
	<stop  offset="0.231" style="stop-color:#BB7E00"/>
	<stop  offset="0.292" style="stop-color:#C99600"/>
	<stop  offset="0.35" style="stop-color:#DBB400"/>
	<stop  offset="0.405" style="stop-color:#F0D800"/>
	<stop  offset="0.439" style="stop-color:#FFF200"/>
	<stop  offset="0.474" style="stop-color:#FFD705"/>
	<stop  offset="0.519" style="stop-color:#FFBB0A"/>
	<stop  offset="0.565" style="stop-color:#FFA80E"/>
	<stop  offset="0.611" style="stop-color:#FF9C10"/>
	<stop  offset="0.658" style="stop-color:#FF9811"/>
	<stop  offset="0.732" style="stop-color:#FF9A12"/>
	<stop  offset="0.758" style="stop-color:#FFA118"/>
	<stop  offset="0.777" style="stop-color:#FFAC21"/>
	<stop  offset="0.793" style="stop-color:#FFBD2E"/>
	<stop  offset="0.806" style="stop-color:#FFD33F"/>
	<stop  offset="0.809" style="stop-color:#FFDA44"/>
	<stop  offset="0.879" style="stop-color:#DDA928"/>
	<stop  offset="0.96" style="stop-color:#B8750B"/>
	<stop  offset="1" style="stop-color:#AA6100"/>
</linearGradient>
<path style="fill:url(#SVGID_3_);" d="M296.112,344.224h-56c-4.418,0-8,3.582-8,8s3.582,8,8,8h56c4.418,0,8-3.582,8-8
	S300.53,344.224,296.112,344.224z"/>
<g>
</g>
<g>
</g>
<g>
</g>
<g>
</g>
<g>
</g>
<g>
</g>
<g>
</g>
<g>
</g>
<g>
</g>
<g>
</g>
<g>
</g>
<g>
</g>
<g>
</g>
<g>
</g>
<g>
</g>
</svg>
