<?xml version="1.0" encoding="iso-8859-1"?>
<!-- Generator: Adobe Illustrator 19.0.0, SVG Export Plug-In . SVG Version: 6.00 Build 0)  -->
<svg version="1.1" id="Capa_1" xmlns="http://www.w3.org/2000/svg" xmlns:xlink="http://www.w3.org/1999/xlink" x="0px" y="0px"
	 viewBox="0 0 512 512" style="enable-background:new 0 0 512 512;" xml:space="preserve">
<polygon style="fill:#FFDA44;" points="496.904,0 496.904,479.689 346.279,509.011 330.923,512 327.954,511.28 316.287,508.951 
	250.247,495.775 195.993,484.948 180.857,481.929 166.001,484.618 15.096,511.94 15.096,33.83 166.001,3.509 181.037,0.49 
	195.993,3.579 250.247,14.776 316.287,28.402 331.403,31.521 346.279,28.692 "/>
<g>
	<polygon style="fill:#FFCD00;" points="496.904,0 496.904,479.689 346.279,509.011 330.923,512 327.954,511.28 316.287,508.951 
		250.247,495.775 250.247,14.776 316.287,28.402 331.403,31.521 346.279,28.692 	"/>
	<polygon style="fill:#FFCD00;" points="496.904,0 496.904,479.689 346.279,509.011 330.923,512 327.954,511.28 316.287,508.951 
		250.247,495.775 250.247,14.776 316.287,28.402 331.403,31.521 346.279,28.692 	"/>
</g>
<g>
	<polygon style="fill:#FFE98F;" points="496.904,178.328 450.468,187.785 440.071,189.904 434.093,160.513 448.269,157.624 
		496.904,147.727 	"/>
	<path style="fill:#FFE98F;" d="M346.279,328.354V209.009l24.973-5.089l10.387-2.109l-5.978-29.391l-14.216,2.899l-15.166,3.089
		V28.692l-14.876,2.829l-15.116-3.119v150.066l-66.041-13.186l-54.254-10.827V3.579L181.037,0.49l-15.036,3.019v150.876
		L15.096,183.706v30.561l150.906-29.331v119.405l-45.317,8.807l-29.991,5.828l-75.598,14.696v30.551l75.598-14.696l29.991-5.818
		l45.317-8.807v149.716l14.856-2.689l15.136,3.019V334.992l54.254,10.837l66.041,13.186v149.936l11.667,2.329l2.969,0.72
		l15.355-2.989V358.965l150.626-30.681v-30.591L346.279,328.354z M316.287,328.424l-66.041-13.186l-54.254-10.827V185.036
		l54.254,10.837l66.041,13.186V328.424z"/>
</g>
<g>
	<polygon style="fill:#FFE166;" points="496.904,147.727 496.904,178.328 440.071,189.904 434.093,160.513 	"/>
	<polygon style="fill:#FFE166;" points="496.904,297.693 496.904,328.284 346.279,358.965 346.279,509.011 330.923,512 
		327.954,511.28 316.287,508.951 316.287,359.015 250.247,345.829 250.247,315.238 316.287,328.424 316.287,209.059 
		250.247,195.873 250.247,165.282 316.287,178.468 316.287,28.402 331.403,31.521 346.279,28.692 346.279,178.408 361.444,175.319 
		375.66,172.419 381.638,201.811 371.251,203.92 346.279,209.009 346.279,328.354 	"/>
</g>
<rect x="90.693" y="287.046" style="fill:#D8D7DA;" width="29.991" height="89.304"/>
<path style="fill:#FF3501;" d="M105.853,211.405c-24.99,0-45.32,20.33-45.32,45.32s20.33,45.32,45.32,45.32s45.32-20.33,45.32-45.32
	S130.842,211.405,105.853,211.405z"/>
<rect x="391.605" y="206.07" style="fill:#D8D7DA;" width="29.991" height="80.306"/>
<path style="fill:#2488FF;" d="M452.072,174.757c-0.522-24.459-20.807-44.325-45.311-44.325c-24.988,0-45.317,20.329-45.317,45.317
	c0,5.893,1.116,11.62,3.3,16.982c6.91,17.109,23.306,28.232,41.857,28.335h0.16c24.993,0,45.327-20.329,45.327-45.317
	C452.088,175.419,452.084,175.088,452.072,174.757z"/>
<g>
</g>
<g>
</g>
<g>
</g>
<g>
</g>
<g>
</g>
<g>
</g>
<g>
</g>
<g>
</g>
<g>
</g>
<g>
</g>
<g>
</g>
<g>
</g>
<g>
</g>
<g>
</g>
<g>
</g>
</svg>
