<?xml version="1.0" encoding="iso-8859-1"?>
<!-- Generator: Adobe Illustrator 19.0.0, SVG Export Plug-In . SVG Version: 6.00 Build 0)  -->
<svg version="1.1" id="Capa_1" xmlns="http://www.w3.org/2000/svg" xmlns:xlink="http://www.w3.org/1999/xlink" x="0px" y="0px"
	 viewBox="0 0 512 512" style="enable-background:new 0 0 512 512;" xml:space="preserve">
<path style="fill:#08B7FC;" d="M489.055,317.963H345.744V166.621h143.312L489.055,317.963L489.055,317.963z"/>
<path style="fill:#82D2FF;" d="M489.055,377.617H345.744V272.119h143.312L489.055,377.617L489.055,377.617z"/>
<g>
	<rect x="257.47" y="287.961" style="fill:#808080;" width="52.915" height="30"/>
	<rect x="257.47" y="330.171" style="fill:#808080;" width="52.915" height="30"/>
</g>
<polygon style="fill:#82D2FF;" points="98.447,325.129 98.447,73.312 202.317,73.312 272.47,297.417 272.47,325.129 "/>
<polygon style="fill:#08B7FC;" points="136.235,325.129 136.235,73.312 202.317,73.312 272.47,297.417 272.47,325.129 "/>
<polygon style="fill:#FFDB0C;" points="0,297.417 0,398.163 19.537,398.163 252.933,398.163 272.47,398.163 272.47,297.417 "/>
<polygon style="fill:#FBBF00;" points="136.235,297.417 136.235,398.163 146.004,398.163 262.702,398.163 272.47,398.163 
	272.47,297.417 "/>
<polygon style="fill:#B3B3B3;" points="512,407.617 295.385,407.617 295.385,150.08 325.385,150.08 325.385,377.617 512,377.617 "/>
<circle style="fill:#4D4D4D;" cx="65.42" cy="398.161" r="40.527"/>
<circle style="fill:#333333;" cx="216.94" cy="398.161" r="40.527"/>
<g>
</g>
<g>
</g>
<g>
</g>
<g>
</g>
<g>
</g>
<g>
</g>
<g>
</g>
<g>
</g>
<g>
</g>
<g>
</g>
<g>
</g>
<g>
</g>
<g>
</g>
<g>
</g>
<g>
</g>
</svg>
