<svg id="Capa_1" enable-background="new 0 0 512 512" height="512" viewBox="0 0 512 512" width="512" xmlns="http://www.w3.org/2000/svg"><g><g><path d="m180 46-15 30-15-30h-90v150h210v-150z" fill="#ffda80"/></g><path d="m270 196v-150h-90l-15 30v120z" fill="#ffb54d"/><g><path d="m150 166 30 75-30 75h-120c-16.569 0-30-13.431-30-30v-120h60l15 30 15-30z" fill="#ffb54d"/></g><path d="m150 316 30-75-30-75h-60l-15 30v120z" fill="#ff8319"/><path d="m240 166-15 30-15-30h-60v150h182l-30-150z" fill="#ffb54d"/><path d="m240 166-15 30v120h107l-30-150z" fill="#ff8319"/><g id="Moving_Truck_2_"><g><path d="m150 46h30v60h-30z" fill="#f3f5f9"/></g><g><path d="m60 166h30v60h-30z" fill="#f3f5f9"/></g></g><g><path d="m210 166h30v60h-30z" fill="#f3f5f9"/></g><g fill="#d7dce6"><path d="m165 46h15v60h-15z"/><path d="m75 166h15v60h-15z"/><path d="m225 166h15v60h-15z"/></g><g><path d="m332 376c0 16.569-13.431 30-30 30h-180.389l-3.486-10.107c-4.102-11.895-15.41-19.893-28.125-19.893s-24.023 7.998-28.125 19.893l-3.486 10.107h-58.389v-120h332z" fill="#5d4d80"/></g><path d="m165 406h137c16.569 0 30-13.431 30-30v-90h-167z" fill="#443d66"/><circle cx="90" cy="406" fill="#443d66" r="60"/><circle cx="90" cy="406" fill="#f3f5f9" r="30"/><g><path d="m437 271-30-105h-105v240h58.5l3.3-10.201c4.2-11.698 15.601-19.799 28.2-19.799s24 8.101 28.2 19.799l3.3 10.201h88.5v-105z" fill="#ff5959"/></g><path d="m512 301h-105v-135h74.399z" fill="#d7dce6"/><circle cx="392" cy="406" fill="#443d66" r="60"/><circle cx="392" cy="406" fill="#d7dce6" r="30"/></g></svg>