<svg height="512" viewBox="0 0 512 512" width="512" xmlns="http://www.w3.org/2000/svg"><g id="Flat"><rect fill="#34507b" height="304" rx="24" width="408" x="56" y="120"/><path d="m96 120h328v304h-328z" fill="#348ed8"/><path d="m336.803 183.197 63.197-63.197h-96l-16.113 15.493-15.887-15.493h-48l39.216 39.216-100.602 96.732-66.614-64.813v48l41.225 41.225-41.225 39.64v104l92.432-92.432 92.433 92.432h54.468l-121.306-118.027 97.973-97.973 112 112v-51.766z" fill="#4db6e4"/><path d="m88 456v-16a43.266 43.266 0 0 0 0-48l27.029-27.029a16.972 16.972 0 0 0 4.971-12 16.971 16.971 0 0 0 -16.971-16.971 16.972 16.972 0 0 0 -12 4.971l-35.029 35.029v-80l-22.627 22.627a32 32 0 0 0 -9.373 22.628v114.745z" fill="#fdc8a2"/><path d="m392 376v-64a16 16 0 0 0 -16-16 16 16 0 0 0 -16 16v88l-19.029-19.029a16.972 16.972 0 0 0 -12-4.971 16.971 16.971 0 0 0 -16.971 16.971v.751a16.966 16.966 0 0 0 4.086 11.044l43.914 51.234h128v-80a16 16 0 0 0 -16-16 16 16 0 0 0 -16 16 16 16 0 0 0 -16-16 16 16 0 0 0 -16 16 16 16 0 0 0 -16-16 16 16 0 0 0 -16 16z" fill="#fdc8a2"/><path d="m198.7 125.02-30.7 42.98-30.7-42.98a49.925 49.925 0 0 1 -9.3-29.02 40 40 0 0 1 40-40 40 40 0 0 1 40 40 49.925 49.925 0 0 1 -9.3 29.02z" fill="#d65246"/><circle cx="168" cy="96" fill="#ba4339" r="16"/><path d="m334.7 277.02-30.7 42.98-30.7-42.98a49.925 49.925 0 0 1 -9.3-29.02 40 40 0 0 1 40-40 40 40 0 0 1 40 40 49.925 49.925 0 0 1 -9.3 29.02z" fill="#d65246"/><circle cx="304" cy="248" fill="#ba4339" r="16"/><path d="m214.7 349.02-30.7 42.98-30.7-42.98a49.925 49.925 0 0 1 -9.3-29.02 40 40 0 0 1 40-40 40 40 0 0 1 40 40 49.925 49.925 0 0 1 -9.3 29.02z" fill="#d65246"/><circle cx="184" cy="320" fill="#ba4339" r="16"/></g></svg>